<svg width="512" height="512" viewBox="0 0 512 512" fill="none" xmlns="http://www.w3.org/2000/svg">
<path d="M460.625 141.446L457.364 135.798L458.152 135.344L463.189 136.413C463.946 136.566 464.528 136.635 464.935 136.621C465.349 136.608 465.724 136.505 466.059 136.312C466.509 136.052 466.8 135.703 466.93 135.264C467.061 134.825 466.996 134.379 466.734 133.925C466.419 133.381 466.018 133.046 465.531 132.922C465.05 132.8 464.533 132.899 463.981 133.218L463.348 132.122C464.142 131.664 464.93 131.549 465.713 131.775C466.499 132.006 467.139 132.549 467.634 133.406C468.096 134.207 468.251 134.962 468.097 135.672C467.948 136.379 467.524 136.934 466.825 137.338C465.977 137.828 464.654 137.87 462.858 137.466L459.02 136.602L461.519 140.93L460.625 141.446Z" fill="black" fill-opacity="0.32"/>
<path d="M44.4567 375.234C44.8869 374.986 45.3358 374.879 45.8034 374.914C46.2688 374.946 46.7078 375.1 47.1206 375.377C47.0542 374.816 47.1313 374.298 47.3519 373.823C47.5702 373.344 47.9142 372.969 48.3839 372.698C49.1298 372.268 49.8696 372.177 50.6033 372.427C51.3348 372.673 51.9374 373.207 52.4114 374.028C52.8899 374.856 53.0529 375.649 52.9002 376.405C52.7413 377.16 52.2909 377.752 51.5489 378.18C51.0832 378.449 50.59 378.565 50.0692 378.529C49.5461 378.489 49.058 378.3 48.6049 377.962C48.6365 378.454 48.5483 378.908 48.3405 379.322C48.1326 379.737 47.8155 380.067 47.3893 380.313C46.6631 380.733 45.9524 380.832 45.2573 380.613C44.5622 380.393 43.9947 379.903 43.5549 379.141C43.1174 378.383 42.9774 377.648 43.1347 376.936C43.2898 376.221 43.7305 375.653 44.4567 375.234ZM48.9925 373.807C48.511 374.085 48.2072 374.466 48.081 374.949C47.9526 375.428 48.0308 375.915 48.3156 376.408C48.6004 376.901 48.9794 377.211 49.4525 377.338C49.9234 377.461 50.4035 377.381 50.8929 377.099C51.3823 376.816 51.6839 376.45 51.7978 376C51.9094 375.546 51.816 375.061 51.5175 374.544C51.2212 374.031 50.8487 373.709 50.3999 373.579C49.9471 373.451 49.478 373.527 48.9925 373.807ZM44.4548 378.621C44.7032 379.052 45.039 379.323 45.4623 379.437C45.8794 379.549 46.3169 379.472 46.7747 379.208C47.2128 378.955 47.4928 378.62 47.6148 378.202C47.7305 377.783 47.6618 377.354 47.4089 376.916C47.156 376.478 46.8201 376.206 46.4014 376.1C45.9764 375.993 45.5448 376.066 45.1068 376.319C44.6687 376.572 44.3901 376.914 44.2711 377.346C44.152 377.778 44.2133 378.203 44.4548 378.621Z" fill="black" fill-opacity="0.32"/>
<path d="M378.776 462.767L380.819 467.318L376.403 469.868L375.818 468.856L379.305 466.843L378.209 464.342C377.93 464.834 377.522 465.236 376.985 465.545C376.2 465.999 375.426 466.098 374.663 465.844C373.903 465.594 373.268 465.026 372.757 464.142C372.245 463.254 372.081 462.415 372.266 461.624C372.45 460.839 372.972 460.198 373.832 459.701C374.594 459.262 375.337 459.114 376.063 459.258C376.788 459.402 377.4 459.828 377.897 460.535L376.861 461.134C376.509 460.679 376.118 460.407 375.688 460.319C375.261 460.234 374.814 460.326 374.348 460.595C373.839 460.889 373.541 461.293 373.453 461.807C373.362 462.323 373.493 462.886 373.846 463.498C374.178 464.074 374.603 464.445 375.119 464.61C375.634 464.781 376.151 464.717 376.672 464.416C377.15 464.14 377.465 463.819 377.616 463.453L377.769 463.048L378.776 462.767Z" fill="black" fill-opacity="0.32"/>
<path d="M135.816 53.7666L134.715 54.4024L130.5 47.1029L128.76 49.1889L128.186 48.1943L130.644 45.2047L130.815 45.1055L135.816 53.7666ZM142.624 49.836L141.523 50.4717L137.308 43.1722L135.568 45.2582L134.994 44.2636L137.452 41.274L137.623 41.1749L142.624 49.836Z" fill="black" fill-opacity="0.32"/>
<path d="M373.885 53.2984L372.784 52.6626L376.998 45.3631L374.322 44.8993L374.896 43.9047L378.714 44.5381L378.886 44.6373L373.885 53.2984Z" fill="black" fill-opacity="0.32"/>
<path d="M131.598 466.119L139.789 460.176L140.937 460.839L132.922 466.505L137.587 469.198L137.068 470.098L131.242 466.735L131.598 466.119Z" fill="black" fill-opacity="0.32"/>
<path d="M461.554 377.511L460.863 378.707L459.969 378.191L460.66 376.995L458.659 375.84L459.294 374.739L461.295 375.894L463.561 371.969L464.207 372.342L467.952 379.65L467.278 380.816L461.554 377.511ZM463.738 373.728L462.189 376.41L466.416 378.851L466.255 378.584L463.738 373.728Z" fill="black" fill-opacity="0.32"/>
<path d="M50.75 141.184L50.1143 142.285L42.8148 138.071L42.351 140.747L41.3564 140.173L41.9898 136.355L42.0889 136.184L50.75 141.184ZM52.0468 130.448C53.3295 131.189 54.1562 131.958 54.5268 132.756C54.8975 133.554 54.8139 134.419 54.2761 135.35C53.7452 136.27 53.0483 136.775 52.1853 136.866C51.3183 136.955 50.2744 136.658 49.0537 135.974L47.5914 135.13C46.3245 134.398 45.5097 133.636 45.1469 132.842C44.7842 132.049 44.8728 131.184 45.4128 130.249C45.9483 129.321 46.6405 128.811 47.4894 128.717C48.3343 128.62 49.3799 128.924 50.626 129.628L52.0468 130.448ZM49.9167 130.678C48.9892 130.143 48.2391 129.884 47.6664 129.9C47.0898 129.915 46.6385 130.204 46.3127 130.768C45.9891 131.329 45.9644 131.859 46.2386 132.36C46.5128 132.86 47.0857 133.367 47.9573 133.881L49.7097 134.892C50.6411 135.43 51.4073 135.694 52.0082 135.683C52.6075 135.666 53.0655 135.383 53.3822 134.834C53.6944 134.293 53.7165 133.772 53.4485 133.27C53.1828 132.764 52.6035 132.245 51.7105 131.714L49.9167 130.678Z" fill="black" fill-opacity="0.32"/>
<path d="M493.57 254.414H495.199C496.223 254.398 497.027 254.129 497.613 253.605C498.199 253.082 498.492 252.375 498.492 251.484C498.492 249.484 497.496 248.484 495.504 248.484C494.566 248.484 493.816 248.754 493.254 249.293C492.699 249.824 492.422 250.531 492.422 251.414H490.254C490.254 250.062 490.746 248.941 491.73 248.051C492.723 247.152 493.98 246.703 495.504 246.703C497.113 246.703 498.375 247.129 499.289 247.98C500.203 248.832 500.66 250.016 500.66 251.531C500.66 252.273 500.418 252.992 499.934 253.688C499.457 254.383 498.805 254.902 497.977 255.246C498.914 255.543 499.637 256.035 500.145 256.723C500.66 257.41 500.918 258.25 500.918 259.242C500.918 260.773 500.418 261.988 499.418 262.887C498.418 263.785 497.117 264.234 495.516 264.234C493.914 264.234 492.609 263.801 491.602 262.934C490.602 262.066 490.102 260.922 490.102 259.5H492.281C492.281 260.398 492.574 261.117 493.16 261.656C493.746 262.195 494.531 262.465 495.516 262.465C496.562 262.465 497.363 262.191 497.918 261.645C498.473 261.098 498.75 260.312 498.75 259.289C498.75 258.297 498.445 257.535 497.836 257.004C497.227 256.473 496.348 256.199 495.199 256.184H493.57V254.414Z" fill="black"/>
<path d="M18.7266 256.5C18.2734 257.039 17.7305 257.473 17.0977 257.801C16.4727 258.129 15.7852 258.293 15.0352 258.293C14.0508 258.293 13.1914 258.051 12.457 257.566C11.7305 257.082 11.168 256.402 10.7695 255.527C10.3711 254.645 10.1719 253.672 10.1719 252.609C10.1719 251.469 10.3867 250.441 10.8164 249.527C11.2539 248.613 11.8711 247.914 12.668 247.43C13.4648 246.945 14.3945 246.703 15.457 246.703C17.1445 246.703 18.4727 247.336 19.4414 248.602C20.418 249.859 20.9062 251.578 20.9062 253.758V254.391C20.9062 257.711 20.25 260.137 18.9375 261.668C17.625 263.191 15.6445 263.973 12.9961 264.012H12.5742V262.184H13.0312C14.8203 262.152 16.1953 261.688 17.1562 260.789C18.1172 259.883 18.6406 258.453 18.7266 256.5ZM15.3867 256.5C16.1133 256.5 16.7812 256.277 17.3906 255.832C18.0078 255.387 18.457 254.836 18.7383 254.18V253.312C18.7383 251.891 18.4297 250.734 17.8125 249.844C17.1953 248.953 16.4141 248.508 15.4688 248.508C14.5156 248.508 13.75 248.875 13.1719 249.609C12.5938 250.336 12.3047 251.297 12.3047 252.492C12.3047 253.656 12.582 254.617 13.1367 255.375C13.6992 256.125 14.4492 256.5 15.3867 256.5Z" fill="black"/>
<path d="M258.926 486.926V488.766H258.527C256.84 488.797 255.496 489.297 254.496 490.266C253.496 491.234 252.918 492.598 252.762 494.355C253.66 493.324 254.887 492.809 256.441 492.809C257.926 492.809 259.109 493.332 259.992 494.379C260.883 495.426 261.328 496.777 261.328 498.434C261.328 500.191 260.848 501.598 259.887 502.652C258.934 503.707 257.652 504.234 256.043 504.234C254.41 504.234 253.086 503.609 252.07 502.359C251.055 501.102 250.547 499.484 250.547 497.508V496.676C250.547 493.535 251.215 491.137 252.551 489.48C253.895 487.816 255.891 486.965 258.539 486.926H258.926ZM256.078 494.613C255.336 494.613 254.652 494.836 254.027 495.281C253.402 495.727 252.969 496.285 252.727 496.957V497.754C252.727 499.16 253.043 500.293 253.676 501.152C254.309 502.012 255.098 502.441 256.043 502.441C257.02 502.441 257.785 502.082 258.34 501.363C258.902 500.645 259.184 499.703 259.184 498.539C259.184 497.367 258.898 496.422 258.328 495.703C257.766 494.977 257.016 494.613 256.078 494.613Z" fill="black"/>
<path d="M251.543 24H249.363V9.55078L244.992 11.1562V9.1875L251.203 6.85547H251.543V24ZM269.074 24H257.895V22.4414L263.801 15.8789C264.676 14.8867 265.277 14.082 265.605 13.4648C265.941 12.8398 266.109 12.1953 266.109 11.5312C266.109 10.6406 265.84 9.91016 265.301 9.33984C264.762 8.76953 264.043 8.48438 263.145 8.48438C262.066 8.48438 261.227 8.79297 260.625 9.41016C260.031 10.0195 259.734 10.8711 259.734 11.9648H257.566C257.566 10.3945 258.07 9.125 259.078 8.15625C260.094 7.1875 261.449 6.70312 263.145 6.70312C264.73 6.70312 265.984 7.12109 266.906 7.95703C267.828 8.78516 268.289 9.89062 268.289 11.2734C268.289 12.9531 267.219 14.9531 265.078 17.2734L260.508 22.2305H269.074V24Z" fill="black"/>
</svg>
